<mxfile host="app.diagrams.net" modified="2020-10-08T06:21:07.145Z" agent="5.0 (Windows NT 10.0; Win64; x64) AppleWebKit/537.36 (KHTML, like Gecko) Chrome/85.0.4183.121 Safari/537.36" etag="SMreEMKNZigKJKJoM-v5" version="13.7.8" type="github">
  <diagram id="PRrrfNvecn7mXlKEEOXM" name="Page-1">
    <mxGraphModel dx="868" dy="460" grid="1" gridSize="10" guides="1" tooltips="1" connect="1" arrows="1" fold="1" page="1" pageScale="1" pageWidth="850" pageHeight="1100" math="0" shadow="0">
      <root>
        <mxCell id="0" />
        <mxCell id="1" parent="0" />
        <mxCell id="fDtqHU9BOQ7XRanfTfdo-1" value="AlertÂ " style="swimlane;childLayout=stackLayout;horizontal=1;startSize=30;horizontalStack=0;rounded=1;fontSize=14;fontStyle=0;strokeWidth=2;resizeParent=0;resizeLast=1;shadow=0;dashed=0;align=center;" vertex="1" parent="1">
          <mxGeometry x="260" y="20" width="250" height="310" as="geometry" />
        </mxCell>
        <mxCell id="fDtqHU9BOQ7XRanfTfdo-2" value="+UserId (from Api, for create by)&#xa;+OwnerId (id from api)&#xa;+Resource (from Api)&#xa;+Organisation id (from Api)&#xa;+Account (from Api)&#xa;+Region (from Api)&#xa;+Remidiation (from Api)&#xa;+Stacktrace (from API)&#xa;+Parent (can be null/ from api)&#xa;+Message (from Api)&#xa;+Type (from Api)&#xa;+Severity (from Api)" style="align=left;strokeColor=none;fillColor=none;spacingLeft=4;fontSize=15;verticalAlign=top;resizable=0;rotatable=0;part=1;" vertex="1" parent="fDtqHU9BOQ7XRanfTfdo-1">
          <mxGeometry y="30" width="250" height="280" as="geometry" />
        </mxCell>
      </root>
    </mxGraphModel>
  </diagram>
</mxfile>
